<svg width="329" height="90" viewBox="0 0 329 90" fill="none" xmlns="http://www.w3.org/2000/svg">
<path d="M23.5273 71.247C25.7763 73.496 26.9008 74.6205 28.2983 74.6205C29.6958 74.6205 30.8203 73.496 33.0693 71.247C33.2259 71.0904 33.4118 70.9661 33.6165 70.8813C33.8211 70.7966 34.0405 70.7529 34.262 70.7529C34.4835 70.7529 34.7029 70.7966 34.9075 70.8813C35.1122 70.9661 35.2981 71.0904 35.4548 71.247L37.8435 73.6325C40.073 75.862 41.1878 76.9768 42.4975 77.3278C43.3555 77.5553 44.259 77.5553 45.117 77.3278C46.4268 76.9768 47.5415 75.862 49.771 73.6325C52.0005 71.403 53.1185 70.285 53.4663 68.9753C53.6969 68.1173 53.6969 67.2137 53.4663 66.3558C53.1185 65.046 52.0038 63.9313 49.771 61.7018L46.196 58.1235L58.1235 46.196L61.7018 49.771C63.9313 52.0038 65.046 53.1185 66.3558 53.4663C67.2137 53.6969 68.1173 53.6969 68.9753 53.4663C70.285 53.1185 71.403 52.0005 73.6325 49.771C75.862 47.5415 76.9768 46.4268 77.3278 45.117C77.5553 44.259 77.5553 43.3555 77.3278 42.4975C76.9768 41.1878 75.862 40.073 73.6325 37.8435L71.247 35.4548C71.0904 35.2981 70.9661 35.1122 70.8813 34.9075C70.7966 34.7029 70.7529 34.4835 70.7529 34.262C70.7529 34.0405 70.7966 33.8211 70.8813 33.6165C70.9661 33.4118 71.0904 33.2259 71.247 33.0693C73.496 30.8203 74.6205 29.6958 74.6205 28.2983M66.476 18.753C64.2238 16.504 63.0993 15.3795 61.7018 15.3795C60.3043 15.3795 59.1798 16.504 56.9308 18.753M18.753 56.9275C16.504 59.1765 15.3795 60.301 15.3795 61.6985M27.1055 62.8912L16.3675 52.1565C14.138 49.927 13.0233 48.8123 12.6723 47.5025C12.4423 46.6445 12.4423 45.741 12.6723 44.883C13.0233 43.5733 14.138 42.4585 16.3675 40.229C18.597 37.9995 19.715 36.8815 21.0248 36.5338C21.8828 36.303 22.7863 36.303 23.6443 36.5338C24.954 36.8815 26.0688 37.9963 28.2983 40.229L31.8765 43.804L43.804 31.8765L40.229 28.2983C37.9963 26.0688 36.8815 24.954 36.5338 23.6443C36.3031 22.7863 36.3031 21.8827 36.5338 21.0248C36.8815 19.715 37.9995 18.597 40.229 16.3675C42.4585 14.138 43.5733 13.0233 44.883 12.6723C45.741 12.4423 46.6445 12.4423 47.5025 12.6723C48.8123 13.0233 49.927 14.138 52.1565 16.3675L62.8945 27.1055M58.1235 46.1928L50.9638 39.0363M31.8765 43.8073L39.0363 50.9638" stroke="white" stroke-width="0.75" stroke-linecap="round" stroke-linejoin="round"/>
<circle cx="45" cy="45" r="43.5" stroke="#2E7758" stroke-width="3"/>
<path d="M115.277 30.4062V56H110.443V30.4062H115.277ZM125.596 41.4629V45.2773H114.012V41.4629H125.596ZM126.949 30.4062V34.2207H114.012V30.4062H126.949ZM135.387 30.4062V56H130.553V30.4062H135.387ZM151.066 30.4062V56H146.25V30.4062H151.066ZM159.012 30.4062V34.2207H138.393V30.4062H159.012ZM182.795 30.4062V56H177.943L167.062 38.2461V56H162.229V30.4062H167.062L177.979 48.1777V30.4062H182.795ZM204.68 52.2031V56H191.074V52.2031H204.68ZM192.551 30.4062V56H187.717V30.4062H192.551ZM202.904 40.9707V44.6797H191.074V40.9707H202.904ZM204.627 30.4062V34.2207H191.074V30.4062H204.627ZM221.432 49.3555C221.432 48.8633 221.355 48.4238 221.203 48.0371C221.062 47.6387 220.799 47.2812 220.412 46.9648C220.037 46.6367 219.504 46.3203 218.812 46.0156C218.133 45.6992 217.254 45.3711 216.176 45.0312C214.98 44.6562 213.867 44.2344 212.836 43.7656C211.805 43.2969 210.896 42.752 210.111 42.1309C209.338 41.5098 208.734 40.7949 208.301 39.9863C207.867 39.166 207.65 38.2168 207.65 37.1387C207.65 36.084 207.873 35.123 208.318 34.2559C208.775 33.3887 209.42 32.6445 210.252 32.0234C211.084 31.3906 212.062 30.9043 213.188 30.5645C214.324 30.2246 215.578 30.0547 216.949 30.0547C218.848 30.0547 220.488 30.4004 221.871 31.0918C223.266 31.7832 224.344 32.7207 225.105 33.9043C225.867 35.0879 226.248 36.418 226.248 37.8945H221.432C221.432 37.0977 221.262 36.3945 220.922 35.7852C220.594 35.1758 220.09 34.6953 219.41 34.3438C218.742 33.9922 217.898 33.8164 216.879 33.8164C215.895 33.8164 215.074 33.9629 214.418 34.2559C213.773 34.5488 213.287 34.9473 212.959 35.4512C212.643 35.9551 212.484 36.5176 212.484 37.1387C212.484 37.6074 212.596 38.0293 212.818 38.4043C213.041 38.7676 213.375 39.1133 213.82 39.4414C214.266 39.7578 214.816 40.0566 215.473 40.3379C216.141 40.6074 216.914 40.877 217.793 41.1465C219.199 41.5684 220.43 42.0371 221.484 42.5527C222.551 43.0684 223.436 43.6543 224.139 44.3105C224.854 44.9668 225.387 45.7051 225.738 46.5254C226.102 47.3457 226.283 48.2773 226.283 49.3203C226.283 50.4219 226.066 51.4062 225.633 52.2734C225.199 53.1406 224.578 53.8789 223.77 54.4883C222.961 55.0977 221.988 55.5605 220.852 55.877C219.727 56.1934 218.467 56.3516 217.072 56.3516C215.83 56.3516 214.6 56.1875 213.381 55.8594C212.174 55.5195 211.078 55.0156 210.094 54.3477C209.109 53.668 208.324 52.8125 207.738 51.7812C207.152 50.7383 206.859 49.5195 206.859 48.125H211.711C211.711 48.9336 211.84 49.625 212.098 50.1992C212.367 50.7617 212.742 51.2246 213.223 51.5879C213.715 51.9395 214.289 52.1973 214.945 52.3613C215.602 52.5254 216.311 52.6074 217.072 52.6074C218.057 52.6074 218.865 52.4727 219.498 52.2031C220.143 51.9219 220.623 51.5352 220.939 51.043C221.268 50.5508 221.432 49.9883 221.432 49.3555ZM243.404 49.3555C243.404 48.8633 243.328 48.4238 243.176 48.0371C243.035 47.6387 242.771 47.2812 242.385 46.9648C242.01 46.6367 241.477 46.3203 240.785 46.0156C240.105 45.6992 239.227 45.3711 238.148 45.0312C236.953 44.6562 235.84 44.2344 234.809 43.7656C233.777 43.2969 232.869 42.752 232.084 42.1309C231.311 41.5098 230.707 40.7949 230.273 39.9863C229.84 39.166 229.623 38.2168 229.623 37.1387C229.623 36.084 229.846 35.123 230.291 34.2559C230.748 33.3887 231.393 32.6445 232.225 32.0234C233.057 31.3906 234.035 30.9043 235.16 30.5645C236.297 30.2246 237.551 30.0547 238.922 30.0547C240.82 30.0547 242.461 30.4004 243.844 31.0918C245.238 31.7832 246.316 32.7207 247.078 33.9043C247.84 35.0879 248.221 36.418 248.221 37.8945H243.404C243.404 37.0977 243.234 36.3945 242.895 35.7852C242.566 35.1758 242.062 34.6953 241.383 34.3438C240.715 33.9922 239.871 33.8164 238.852 33.8164C237.867 33.8164 237.047 33.9629 236.391 34.2559C235.746 34.5488 235.26 34.9473 234.932 35.4512C234.615 35.9551 234.457 36.5176 234.457 37.1387C234.457 37.6074 234.568 38.0293 234.791 38.4043C235.014 38.7676 235.348 39.1133 235.793 39.4414C236.238 39.7578 236.789 40.0566 237.445 40.3379C238.113 40.6074 238.887 40.877 239.766 41.1465C241.172 41.5684 242.402 42.0371 243.457 42.5527C244.523 43.0684 245.408 43.6543 246.111 44.3105C246.826 44.9668 247.359 45.7051 247.711 46.5254C248.074 47.3457 248.256 48.2773 248.256 49.3203C248.256 50.4219 248.039 51.4062 247.605 52.2734C247.172 53.1406 246.551 53.8789 245.742 54.4883C244.934 55.0977 243.961 55.5605 242.824 55.877C241.699 56.1934 240.439 56.3516 239.045 56.3516C237.803 56.3516 236.572 56.1875 235.354 55.8594C234.146 55.5195 233.051 55.0156 232.066 54.3477C231.082 53.668 230.297 52.8125 229.711 51.7812C229.125 50.7383 228.832 49.5195 228.832 48.125H233.684C233.684 48.9336 233.812 49.625 234.07 50.1992C234.34 50.7617 234.715 51.2246 235.195 51.5879C235.688 51.9395 236.262 52.1973 236.918 52.3613C237.574 52.5254 238.283 52.6074 239.045 52.6074C240.029 52.6074 240.838 52.4727 241.471 52.2031C242.115 51.9219 242.596 51.5352 242.912 51.043C243.24 50.5508 243.404 49.9883 243.404 49.3555ZM271.125 34.291L263.83 56H258.715L268.277 30.4062H271.547L271.125 34.291ZM277.225 56L269.895 34.291L269.455 30.4062H272.742L282.357 56H277.225ZM276.891 46.4902V50.3047H263.162V46.4902H276.891ZM294.838 46.666H288.246V42.8691H294.838C295.916 42.8691 296.789 42.6934 297.457 42.3418C298.137 41.9785 298.635 41.4863 298.951 40.8652C299.268 40.2324 299.426 39.5117 299.426 38.7031C299.426 37.918 299.268 37.1855 298.951 36.5059C298.635 35.8262 298.137 35.2754 297.457 34.8535C296.789 34.4316 295.916 34.2207 294.838 34.2207H289.828V56H284.994V30.4062H294.838C296.83 30.4062 298.529 30.7637 299.936 31.4785C301.354 32.1816 302.432 33.1602 303.17 34.4141C303.92 35.6562 304.295 37.0742 304.295 38.668C304.295 40.3203 303.92 41.7441 303.17 42.9395C302.432 44.1348 301.354 45.0547 299.936 45.6992C298.529 46.3438 296.83 46.666 294.838 46.666ZM317.936 46.666H311.344V42.8691H317.936C319.014 42.8691 319.887 42.6934 320.555 42.3418C321.234 41.9785 321.732 41.4863 322.049 40.8652C322.365 40.2324 322.523 39.5117 322.523 38.7031C322.523 37.918 322.365 37.1855 322.049 36.5059C321.732 35.8262 321.234 35.2754 320.555 34.8535C319.887 34.4316 319.014 34.2207 317.936 34.2207H312.926V56H308.092V30.4062H317.936C319.928 30.4062 321.627 30.7637 323.033 31.4785C324.451 32.1816 325.529 33.1602 326.268 34.4141C327.018 35.6562 327.393 37.0742 327.393 38.668C327.393 40.3203 327.018 41.7441 326.268 42.9395C325.529 44.1348 324.451 45.0547 323.033 45.6992C321.627 46.3438 319.928 46.666 317.936 46.666Z" fill="white"/>
</svg>
